<svg width="304" height="19" viewBox="0 0 304 19" fill="none" xmlns="http://www.w3.org/2000/svg" id="svg-923933413_9795">
<path fill-rule="evenodd" clip-rule="evenodd" d="M89.1187 6.14668C90.5684 6.14668 91.7482 7.30091 91.7482 8.94405C91.7482 10.5872 90.5701 11.7405 89.1187 11.7405C87.6691 11.7405 86.4893 10.5479 86.4893 8.94405C86.4893 7.32101 87.6691 6.14668 89.1187 6.14668ZM91.7709 12.5621V13.8333H94.1499V4.05484H91.7718V5.28675C91.0567 4.42771 90.0135 3.87938 88.7755 3.87938C86.1443 3.87938 84.0572 6.06903 84.0572 8.94408C84.0572 11.8374 86.0676 13.9887 88.7165 13.9887C89.9906 13.9887 91.0558 13.4422 91.7709 12.5621ZM104.636 10.5287C104.636 11.3493 104.867 11.6619 105.699 11.6619L105.698 11.6628H106.183V13.8341H104.926C102.954 13.8341 102.201 12.9733 102.201 10.9783V6.18684H99.0623V13.8323H96.6251V6.18684H95.2715V4.05294H96.6251V3.12627C96.6251 1.0929 97.5721 0.427602 99.5825 0.427602H100.755V2.32389H100.221C99.37 2.32389 99.0596 2.63735 99.0596 3.45984V4.05386H102.199V1.66864H104.636V4.05386H106.164V6.18684H104.636V10.5287ZM112.04 6.02956C113.239 6.02956 114.264 6.79264 114.438 8.06293H114.437H109.605C109.855 6.77254 110.841 6.02956 112.04 6.02956ZM112.078 11.8584C110.783 11.8584 109.759 11.0359 109.584 9.58927H116.991C117.03 9.39279 117.048 9.17894 117.048 8.96327C117.048 6.02973 114.961 3.87847 112.08 3.87847C109.218 3.87847 107.052 6.01054 107.052 8.96327C107.052 11.9169 109.102 13.9887 112.02 13.9887C114.437 13.9887 116.274 12.659 116.855 10.5863H114.36C113.897 11.3686 113.103 11.8584 112.078 11.8584ZM129.912 6.1466C131.362 6.1466 132.542 7.35931 132.542 8.94397C132.542 10.5286 131.362 11.7404 129.912 11.7404C128.463 11.7404 127.283 10.5478 127.283 8.94397C127.283 7.32093 128.463 6.1466 129.912 6.1466ZM127.263 4.05478H124.884V17.857H127.34V12.6799C128.035 13.5006 129.04 13.9904 130.259 13.9904C132.888 13.9904 134.975 11.7999 134.975 8.92391C134.975 6.05069 132.927 3.87932 130.317 3.87932C129.04 3.87932 127.977 4.42582 127.263 5.32598V4.05478ZM140.917 6.1466C142.368 6.1466 143.546 7.30083 143.546 8.94397C143.546 10.5871 142.368 11.7404 140.917 11.7404C139.467 11.7404 138.287 10.5478 138.287 8.94397C138.287 7.32093 139.467 6.1466 140.917 6.1466ZM143.568 12.5622V13.8334H145.945V4.05491H143.568V5.28681C142.853 4.42777 141.809 3.87944 140.572 3.87944C137.941 3.87944 135.854 6.06909 135.854 8.94414C135.854 11.8375 137.864 13.9887 140.513 13.9887C141.787 13.9887 142.853 13.4422 143.568 12.5622ZM122.686 3.88029C121.204 3.88029 120.599 5.0135 120.599 5.0135V4.05667H118.221V13.8351H120.676V8.04573C120.673 7.02402 121.193 6.26094 122.014 6.14853C122.836 6.03612 123.73 6.5945 123.73 6.5945V4.09962C123.73 4.09962 123.32 3.88029 122.686 3.88029ZM151.045 17.8259L157.049 4.05476H154.478L152.086 9.69886L149.755 4.05476H146.885L150.871 12.5017L148.514 17.8259H151.045ZM170.263 0.359059L176.215 3.8327V3.83361C177.022 4.29347 177.524 5.17257 177.524 6.12744C177.524 7.08231 177.022 7.96141 176.215 8.42126L170.263 11.8958C168.516 12.9175 166.333 11.6408 166.333 9.60016V9.1286C166.333 8.68446 165.859 8.40755 165.48 8.62963L160.324 11.6399C160.149 11.7401 160.04 11.9311 160.04 12.1384C160.04 12.3458 160.149 12.5368 160.324 12.637L165.48 15.6464C165.858 15.8684 166.333 15.5915 166.333 15.1483V14.2618C166.333 13.8771 166.744 13.6358 167.074 13.8287L168.198 14.4867C168.471 14.644 168.642 14.9419 168.644 15.2662V15.6226C168.644 17.6642 166.458 18.9381 164.711 17.9182L158.759 14.4446C157.951 13.9845 157.449 13.1047 157.449 12.149C157.449 11.1933 157.951 10.3134 158.759 9.8533L164.711 6.37875C166.46 5.35704 168.644 6.63372 168.644 8.67441V9.14597C168.644 9.59011 169.117 9.8661 169.496 9.64494L174.651 6.63555C175.03 6.41439 175.03 5.86059 174.651 5.63943L169.496 2.62912C169.117 2.40705 168.643 2.68487 168.643 3.1281V4.01456C168.643 4.3993 168.232 4.64056 167.902 4.44682L166.778 3.79066C166.503 3.63073 166.333 3.33281 166.333 3.01112V2.65471C166.333 0.613116 168.517 -0.660825 170.263 0.359059ZM235.595 2.85609L235.103 5.70307C233.63 4.88919 230.275 4.69662 230.275 6.19565C230.275 6.79117 231.034 7.20072 231.949 7.69435C233.336 8.44298 235.081 9.38498 235.081 11.4623C235.081 14.7816 231.536 16.0012 229.185 16.0012C226.836 16.0012 225.298 15.2526 225.298 15.2526L225.81 12.2758C227.22 13.4103 231.493 13.7326 231.493 11.9336C231.493 11.1776 230.652 10.7318 229.676 10.2148C228.331 9.50152 226.729 8.65277 226.729 6.66695C226.729 3.02666 230.788 2.27804 232.497 2.27804C234.078 2.27804 235.595 2.85609 235.595 2.85609ZM247.087 15.7723H243.925L243.522 13.8031H239.143L238.425 15.7723H234.835L239.972 3.50246C239.972 3.50246 240.283 2.51446 241.562 2.51446H244.33L247.087 15.7723ZM216.833 2.51476L213.55 11.6334L213.162 9.67051L213.161 9.6698L213.161 9.66757L213.162 9.67005L212.003 3.70799C212.003 3.70799 211.863 2.5143 210.369 2.5143H204.941L204.941 2.51476H204.941L204.877 2.73924C204.877 2.73924 206.537 3.08536 208.48 4.25458L211.472 15.7727H215.06L220.54 2.51476H216.833ZM223.177 15.7724H219.733L221.886 2.51486H225.33L223.177 15.7724ZM240.136 11.0828L241.945 6.12153L242.963 11.0828H240.136ZM53.9769 2.2296L52.1939 13.5483C52.1773 13.6525 52.2073 13.7587 52.276 13.8389C52.3447 13.9191 52.4451 13.9653 52.5509 13.9653H54.3434C54.6414 13.9653 54.8942 13.7498 54.9399 13.4564L56.6982 2.34178C56.7147 2.23752 56.6847 2.13126 56.6161 2.05094C56.5474 1.97063 56.447 1.92428 56.3412 1.9241H54.3339C54.1559 1.92473 54.0047 2.05415 53.9769 2.2296ZM34.1942 1.9248H38.5391C39.9931 1.9248 41.0876 2.30763 41.7044 3.03144C42.2665 3.69061 42.4539 4.63183 42.2589 5.82974C41.827 8.56783 40.176 9.94955 37.3137 9.94955H35.9391C35.642 9.94972 35.3893 10.1656 35.3433 10.4585L34.8446 13.6092C34.8125 13.814 34.6357 13.9651 34.4279 13.9654H32.1983C32.0926 13.9654 31.9921 13.9192 31.9235 13.839C31.8548 13.7588 31.8248 13.6526 31.8413 13.5484L33.5983 2.43312C33.6446 2.1405 33.8973 1.92493 34.1942 1.9248ZM36.4596 7.53966C37.6118 7.53966 38.8029 7.53966 39.0398 5.98427C39.1268 5.43792 39.0576 5.04242 38.8296 4.77622C38.4472 4.33001 37.7065 4.33001 36.9226 4.33001H36.6222C36.4441 4.32979 36.2925 4.45927 36.2652 4.63488L35.8046 7.53966H36.4596ZM51.5247 5.93429H49.4457C49.2675 5.9338 49.1157 6.0634 49.0887 6.23915L48.9966 6.81973L48.8505 6.6093C48.4001 5.9571 47.3965 5.73907 46.3941 5.73907C44.0952 5.73907 42.1324 7.47636 41.75 9.91338C41.5518 11.129 41.8332 12.2915 42.5243 13.1021C43.1596 13.8475 44.0654 14.1581 45.1446 14.1581C46.9969 14.1581 48.0241 12.9696 48.0241 12.9696L47.9313 13.5464C47.9146 13.651 47.9446 13.7576 48.0136 13.8382C48.0825 13.9187 48.1834 13.965 48.2896 13.9647H50.1628C50.4599 13.9646 50.7127 13.7487 50.7587 13.4558L51.8836 6.35134C51.8998 6.24688 51.8694 6.14061 51.8004 6.06043C51.7313 5.98024 51.6307 5.93416 51.5247 5.93429ZM46.2775 11.9562C47.4806 11.9562 48.4252 11.1601 48.6246 9.97425C48.7167 9.40001 48.591 8.87901 48.2727 8.50569C47.9564 8.13618 47.4761 7.94033 46.8854 7.94033C45.7007 7.94033 44.7428 8.76239 44.5541 9.93812C44.4576 10.5149 44.5732 11.0327 44.8806 11.3965C45.1906 11.7629 45.6747 11.9562 46.2775 11.9562ZM3.20793 1.92471H7.55219C9.0062 1.92471 10.1013 2.30754 10.7187 3.03135C11.2809 3.69052 11.467 4.63174 11.2727 5.82965C10.8413 8.56774 9.18978 9.94946 6.32812 9.94946H4.95287C4.65578 9.94963 4.40301 10.1655 4.35704 10.4584L3.88316 13.4564C3.83715 13.7495 3.58403 13.9655 3.28669 13.9653H1.2127C1.10682 13.9655 1.00618 13.9194 0.937267 13.8392C0.868359 13.7589 0.838094 13.6526 0.854441 13.5483L2.61146 2.43303C2.65775 2.14018 2.9108 1.92452 3.20793 1.92471ZM5.4739 7.53957C6.62556 7.53957 7.81659 7.53957 8.05416 5.98418C8.14119 5.43783 8.07131 5.04233 7.84327 4.77613C7.46087 4.32992 6.72084 4.32992 5.93634 4.32992H5.63589C5.45775 4.32993 5.30607 4.45922 5.27826 4.63479L4.81836 7.53957H5.4739ZM20.5382 5.93432H18.4579C18.2798 5.93432 18.1281 6.06362 18.1003 6.23918L18.0082 6.81976L17.8627 6.60933C17.4123 5.95714 16.4081 5.7391 15.4057 5.7391C13.1068 5.7391 11.1434 7.47639 10.761 9.91342C10.5621 11.1291 10.8448 12.2915 11.5359 13.1021C12.1699 13.8475 13.077 14.1581 14.1562 14.1581C16.0085 14.1581 17.0357 12.9697 17.0357 12.9697L16.9429 13.5465C16.9262 13.6508 16.9561 13.7572 17.0248 13.8377C17.0934 13.9182 17.194 13.9646 17.2999 13.9648H19.1738C19.4711 13.9649 19.7243 13.7489 19.7703 13.4558L20.8946 6.35137C20.9114 6.24724 20.8815 6.14101 20.8129 6.06076C20.7443 5.9805 20.6439 5.93429 20.5382 5.93432ZM15.2912 11.9563C16.4943 11.9563 17.4376 11.1603 17.6384 9.9744C17.7292 9.40016 17.6034 8.87917 17.2864 8.50585C16.9701 8.13633 16.4899 7.94049 15.8991 7.94049C14.7144 7.94049 13.7553 8.76254 13.5679 9.93827C13.4701 10.515 13.5869 11.0329 13.8944 11.3967C14.2044 11.763 14.6871 11.9563 15.2912 11.9563ZM31.6183 5.93417H29.5278C29.3276 5.93449 29.1405 6.0334 29.0279 6.19847L26.1446 10.4362L24.9224 6.3639C24.8454 6.10888 24.6101 5.9343 24.3431 5.93417H22.2888C22.1718 5.93386 22.0619 5.98998 21.9937 6.08483C21.9255 6.17969 21.9074 6.30158 21.9452 6.41207L24.2478 13.1546L22.083 16.2039C22.0046 16.3141 21.9944 16.4588 22.0566 16.5789C22.1187 16.699 22.2429 16.7744 22.3784 16.7743H24.4663C24.6642 16.7746 24.8496 16.678 24.9625 16.5157L31.9156 6.50144C31.9924 6.39101 32.0014 6.24716 31.939 6.12804C31.8765 6.00892 31.753 5.93424 31.6183 5.93417ZM286.943 7.99648C286.943 5.44599 288.153 3.17401 290.038 1.70984C288.611 0.59991 286.847 -0.00248736 285.031 0.000161301C280.557 0.000161301 276.93 3.58018 276.93 7.99648C276.93 12.4128 280.557 15.9928 285.031 15.9928C286.847 15.9955 288.611 15.3931 290.038 14.2831C288.154 12.8192 286.943 10.5471 286.943 7.99648ZM303.15 7.99658C303.15 12.4129 299.523 15.9929 295.049 15.9929C293.232 15.9955 291.468 15.3931 290.041 14.2832C291.926 12.819 293.136 10.5472 293.136 7.99658C293.136 5.44597 291.926 3.17411 290.041 1.70995C291.468 0.600048 293.232 -0.00233586 295.049 0.000266066C299.523 0.000266066 303.15 3.58028 303.15 7.99658Z" fill="#475467"/>
</svg>