<svg width="16" height="17" viewBox="0 0 16 17" fill="none" xmlns="http://www.w3.org/2000/svg" id="svg-75576316_785">
<path d="M7.53834 1.21348C7.70914 0.802835 8.29086 0.802833 8.46166 1.21348L9.99874 4.90907C10.0707 5.08219 10.2336 5.20048 10.4204 5.21546L14.4102 5.53531C14.8535 5.57085 15.0332 6.12411 14.6955 6.41344L11.6557 9.0173C11.5133 9.13927 11.4512 9.33066 11.4947 9.51304L12.4234 13.4063C12.5265 13.8389 12.0559 14.1809 11.6764 13.949L8.26063 11.8627C8.10062 11.765 7.89938 11.765 7.73937 11.8627L4.32363 13.949C3.94408 14.1809 3.47345 13.8389 3.57665 13.4063L4.50534 9.51304C4.54884 9.33066 4.48665 9.13927 4.34426 9.0173L1.30453 6.41344C0.966758 6.12411 1.14652 5.57085 1.58985 5.53531L5.57955 5.21546C5.76645 5.20048 5.92925 5.08219 6.00126 4.90907L7.53834 1.21348Z" fill="#282828"/>
</svg>