<svg xmlns="http://www.w3.org/2000/svg" xmlns:xlink="http://www.w3.org/1999/xlink" viewBox="0 0 24 25"><g transform="translate(0 0.104)" id="ss2688451070_1"><path d="M 0 24 L 0 0 L 24 0 L 24 24 Z" fill="transparent"></path><path d="M 3 4 C 3 3.735 3.105 3.48 3.293 3.293 C 3.48 3.105 3.735 3 4 3 L 6 3 C 6.265 3 6.52 3.105 6.707 3.293 C 6.895 3.48 7 3.735 7 4 L 7 6 C 7 6.265 6.895 6.52 6.707 6.707 C 6.52 6.895 6.265 7 6 7 L 4 7 C 3.735 7 3.48 6.895 3.293 6.707 C 3.105 6.52 3 6.265 3 6 Z" fill="transparent" stroke-width="1.2" stroke="rgb(71,84,103)" stroke-linecap="round" stroke-linejoin="round" stroke-dasharray=""></path><path d="M 17 4 C 17 3.735 17.105 3.48 17.293 3.293 C 17.48 3.105 17.735 3 18 3 L 20 3 C 20.265 3 20.52 3.105 20.707 3.293 C 20.895 3.48 21 3.735 21 4 L 21 6 C 21 6.265 20.895 6.52 20.707 6.707 C 20.52 6.895 20.265 7 20 7 L 18 7 C 17.735 7 17.48 6.895 17.293 6.707 C 17.105 6.52 17 6.265 17 6 Z" fill="transparent" stroke-width="1.2" stroke="rgb(71,84,103)" stroke-linecap="round" stroke-linejoin="round" stroke-dasharray=""></path><path d="M 17 18 C 17 17.735 17.105 17.48 17.293 17.293 C 17.48 17.105 17.735 17 18 17 L 20 17 C 20.265 17 20.52 17.105 20.707 17.293 C 20.895 17.48 21 17.735 21 18 L 21 20 C 21 20.265 20.895 20.52 20.707 20.707 C 20.52 20.895 20.265 21 20 21 L 18 21 C 17.735 21 17.48 20.895 17.293 20.707 C 17.105 20.52 17 20.265 17 20 Z" fill="transparent" stroke-width="1.2" stroke="rgb(71,84,103)" stroke-linecap="round" stroke-linejoin="round" stroke-dasharray=""></path><path d="M 3 18 C 3 17.735 3.105 17.48 3.293 17.293 C 3.48 17.105 3.735 17 4 17 L 6 17 C 6.265 17 6.52 17.105 6.707 17.293 C 6.895 17.48 7 17.735 7 18 L 7 20 C 7 20.265 6.895 20.52 6.707 20.707 C 6.52 20.895 6.265 21 6 21 L 4 21 C 3.735 21 3.48 20.895 3.293 20.707 C 3.105 20.52 3 20.265 3 20 Z" fill="transparent" stroke-width="1.2" stroke="rgb(71,84,103)" stroke-linecap="round" stroke-linejoin="round" stroke-dasharray=""></path><path d="M 5 7 L 5 17" fill="transparent" stroke-width="1.2" stroke="rgb(71,84,103)" stroke-linecap="round" stroke-linejoin="round" stroke-dasharray=""></path><path d="M 19 7 L 19 17" fill="transparent" stroke-width="1.2" stroke="rgb(71,84,103)" stroke-linecap="round" stroke-linejoin="round" stroke-dasharray=""></path><path d="M 7 5 L 17 5" fill="transparent" stroke-width="1.2" stroke="rgb(71,84,103)" stroke-linecap="round" stroke-linejoin="round" stroke-dasharray=""></path><path d="M 7 19 L 17 19" fill="transparent" stroke-width="1.2" stroke="rgb(71,84,103)" stroke-linecap="round" stroke-linejoin="round" stroke-dasharray=""></path></g></svg>